TITLE ""
FILE "1Q_t_1720-1729.mp3" MP3
  TRACK 01 AUDIO
    TITLE "1Q_t_1720-1729_01"
    INDEX 01 00:00:00
  TRACK 02 AUDIO
    TITLE "1Q_t_1720-1729_02"
    INDEX 01 00:01:04
  TRACK 03 AUDIO
    TITLE "1Q_t_1720-1729_03"
    INDEX 01 00:01:16
  TRACK 04 AUDIO
    TITLE "1Q_t_1720-1729_04"
    INDEX 01 00:04:65
  TRACK 05 AUDIO
    TITLE "1Q_t_1720-1729_05"
    INDEX 01 00:04:73
  TRACK 06 AUDIO
    TITLE "1Q_t_1720-1729_06"
    INDEX 01 00:10:66
  TRACK 07 AUDIO
    TITLE "1Q_t_1720-1729_07"
    INDEX 01 00:11:39
  TRACK 08 AUDIO
    TITLE "1Q_t_1720-1729_08"
    INDEX 01 00:12:55
  TRACK 09 AUDIO
    TITLE "1Q_t_1720-1729_09"
    INDEX 01 00:12:62
  TRACK 10 AUDIO
    TITLE "1Q_t_1720-1729_10"
    INDEX 01 00:16:70
  TRACK 11 AUDIO
    TITLE "1Q_t_1720-1729_11"
    INDEX 01 00:17:05
  TRACK 12 AUDIO
    TITLE "1Q_t_1720-1729_12"
    INDEX 01 00:21:65
  TRACK 13 AUDIO
    TITLE "1Q_t_1720-1729_13"
    INDEX 01 00:22:37
  TRACK 14 AUDIO
    TITLE "1Q_t_1720-1729_14"
    INDEX 01 00:23:45
  TRACK 15 AUDIO
    TITLE "1Q_t_1720-1729_15"
    INDEX 01 00:23:56
  TRACK 16 AUDIO
    TITLE "1Q_t_1720-1729_16"
    INDEX 01 00:25:75
  TRACK 17 AUDIO
    TITLE "1Q_t_1720-1729_17"
    INDEX 01 00:26:10
  TRACK 18 AUDIO
    TITLE "1Q_t_1720-1729_18"
    INDEX 01 00:31:19
  TRACK 19 AUDIO
    TITLE "1Q_t_1720-1729_19"
    INDEX 01 00:31:66
  TRACK 20 AUDIO
    TITLE "1Q_t_1720-1729_20"
    INDEX 01 00:32:71
  TRACK 21 AUDIO
    TITLE "1Q_t_1720-1729_21"
    INDEX 01 00:33:08
  TRACK 22 AUDIO
    TITLE "1Q_t_1720-1729_22"
    INDEX 01 00:34:56
  TRACK 23 AUDIO
    TITLE "1Q_t_1720-1729_23"
    INDEX 01 00:34:64
  TRACK 24 AUDIO
    TITLE "1Q_t_1720-1729_24"
    INDEX 01 00:38:17
  TRACK 25 AUDIO
    TITLE "1Q_t_1720-1729_25"
    INDEX 01 00:38:64
  TRACK 26 AUDIO
    TITLE "1Q_t_1720-1729_26"
    INDEX 01 00:39:75
  TRACK 27 AUDIO
    TITLE "1Q_t_1720-1729_27"
    INDEX 01 00:40:10
  TRACK 28 AUDIO
    TITLE "1Q_t_1720-1729_28"
    INDEX 01 00:42:34
  TRACK 29 AUDIO
    TITLE "1Q_t_1720-1729_29"
    INDEX 01 00:42:44
  TRACK 30 AUDIO
    TITLE "1Q_t_1720-1729_30"
    INDEX 01 00:47:18
  TRACK 31 AUDIO
    TITLE "1Q_t_1720-1729_31"
    INDEX 01 00:47:67
  TRACK 32 AUDIO
    TITLE "1Q_t_1720-1729_32"
    INDEX 01 00:48:74
  TRACK 33 AUDIO
    TITLE "1Q_t_1720-1729_33"
    INDEX 01 00:49:11
  TRACK 34 AUDIO
    TITLE "1Q_t_1720-1729_34"
    INDEX 01 00:51:16
  TRACK 35 AUDIO
    TITLE "1Q_t_1720-1729_35"
    INDEX 01 00:51:21
  TRACK 36 AUDIO
    TITLE "1Q_t_1720-1729_36"
    INDEX 01 00:56:28
  TRACK 37 AUDIO
    TITLE "1Q_t_1720-1729_37"
    INDEX 01 00:57:02
  TRACK 38 AUDIO
    TITLE "1Q_t_1720-1729_38"
    INDEX 01 00:58:08
  TRACK 39 AUDIO
    TITLE "1Q_t_1720-1729_39"
    INDEX 01 00:58:19
  TRACK 40 AUDIO
    TITLE "1Q_t_1720-1729_40"
    INDEX 01 01:00:20
  TRACK 41 AUDIO
    TITLE "1Q_t_1720-1729_41"
    INDEX 01 01:00:30
  TRACK 42 AUDIO
    TITLE "1Q_t_1720-1729_42"
    INDEX 01 01:05:37
  TRACK 43 AUDIO
    TITLE "1Q_t_1720-1729_43"
    INDEX 01 01:06:09
  TRACK 44 AUDIO
    TITLE "1Q_t_1720-1729_44"
    INDEX 01 01:07:13
  TRACK 45 AUDIO
    TITLE "1Q_t_1720-1729_45"
    INDEX 01 01:07:22
  TRACK 46 AUDIO
    TITLE "1Q_t_1720-1729_46"
    INDEX 01 01:09:64
  TRACK 47 AUDIO
    TITLE "1Q_t_1720-1729_47"
    INDEX 01 01:09:72
  TRACK 48 AUDIO
    TITLE "1Q_t_1720-1729_48"
    INDEX 01 01:15:26
  TRACK 49 AUDIO
    TITLE "1Q_t_1720-1729_49"
    INDEX 01 01:15:73
  TRACK 50 AUDIO
    TITLE "1Q_t_1720-1729_50"
    INDEX 01 01:17:09
  TRACK 51 AUDIO
    TITLE "1Q_t_1720-1729_51"
    INDEX 01 01:17:21
  TRACK 52 AUDIO
    TITLE "1Q_t_1720-1729_52"
    INDEX 01 01:22:14
  TRACK 53 AUDIO
    TITLE "1Q_t_1720-1729_53"
    INDEX 01 01:22:24
  TRACK 54 AUDIO
    TITLE "1Q_t_1720-1729_54"
    INDEX 01 01:27:25
  TRACK 55 AUDIO
    TITLE "1Q_t_1720-1729_55"
    INDEX 01 01:27:72
  TRACK 56 AUDIO
    TITLE "1Q_t_1720-1729_56"
    INDEX 01 01:29:40
  TRACK 57 AUDIO
    TITLE "1Q_t_1720-1729_57"
    INDEX 01 01:29:49
  TRACK 58 AUDIO
    TITLE "1Q_t_1720-1729_58"
    INDEX 01 01:31:35
  TRACK 59 AUDIO
    TITLE "1Q_t_1720-1729_59"
    INDEX 01 01:31:42
  TRACK 60 AUDIO
    TITLE "1Q_t_1720-1729_60"
    INDEX 01 01:37:23
